<?xml version="1.0" encoding="UTF-8" standalone="no"?>
<svg
   xmlns:dc="http://purl.org/dc/elements/1.1/"
   xmlns:cc="http://creativecommons.org/ns#"
   xmlns:rdf="http://www.w3.org/1999/02/22-rdf-syntax-ns#"
   xmlns:svg="http://www.w3.org/2000/svg"
   xmlns="http://www.w3.org/2000/svg"
   xmlns:sodipodi="http://sodipodi.sourceforge.net/DTD/sodipodi-0.dtd"
   xmlns:inkscape="http://www.inkscape.org/namespaces/inkscape"
   width="2500"
   height="2500"
   viewBox="0 0 256 256"
   preserveAspectRatio="xMinYMin meet"
   version="1.1"
   id="svg3556"
   sodipodi:docname="logo.svg"
   inkscape:version="0.92+devel unknown">
  <metadata
     id="metadata3562">
    <rdf:RDF>
      <cc:Work
         rdf:about="">
        <dc:format>image/svg+xml</dc:format>
        <dc:type
           rdf:resource="http://purl.org/dc/dcmitype/StillImage" />
      </cc:Work>
    </rdf:RDF>
  </metadata>
  <defs
     id="defs3560" />
  <sodipodi:namedview
     pagecolor="#ffffff"
     bordercolor="#666666"
     inkscape:document-rotation="0"
     borderopacity="1"
     objecttolerance="10"
     gridtolerance="10"
     guidetolerance="10"
     inkscape:pageopacity="0"
     inkscape:pageshadow="2"
     inkscape:window-width="1366"
     inkscape:window-height="715"
     id="namedview3558"
     showgrid="false"
     inkscape:zoom="0.212"
     inkscape:cx="1250"
     inkscape:cy="1250"
     inkscape:window-x="0"
     inkscape:window-y="0"
     inkscape:window-maximized="1"
     inkscape:current-layer="svg3556" />
  <path
     d="M127.946 31.99l-72.874-8.07L0 .004h63.97l63.976 31.99M127.946 31.99l74.542-6.401L255.892.004h-63.975l-63.971 31.99"
     fill="#FBC707"
     id="path3532" />
  <path
     d="M127.946 223.905l69.536 2.503 58.41 29.483h-63.975L127.946 223.9"
     fill="#F68712"
     id="path3534" />
  <path
     d="M127.946 223.905H57.854L0 255.89h63.97l63.976-31.992"
     fill="#F25C19"
     id="path3536" />
  <path
     d="M31.985 127.949v67.307L0 255.89v-63.97l31.985-63.974"
     fill="#FFF200"
     id="path3538" />
  <path
     d="M31.985 127.949L26.702 61.19 0 .004v63.97l31.985 63.973"
     fill="#FFF200"
     id="path3540" />
  <path
     d="M223.9 127.949l6.959-70.096L255.892.003v63.971L223.9 127.947"
     fill="#F1471D"
     id="path3542" />
  <path
     d="M223.9 127.949l5.846 75.095 26.146 52.847v-63.97L223.9 127.946"
     fill="#F1471D"
     id="path3544" />
  <path
     d="M0 .004L127.946 31.99l-20.583 81.492-75.378 14.467L0 .01"
     fill="#FAB20B"
     id="path3546" />
  <path
     d="M255.892.004L223.9 127.949l-85.942-15.584-10.013-80.379L255.892.01"
     fill="#F47216"
     id="path3548" />
  <path
     d="M255.892 255.891l-127.946-31.986 14.463-84.828 81.492-11.122 31.99 127.928"
     fill="#F25C19"
     id="path3550" />
  <path
     d="M0 255.891L31.985 127.95l77.047 17.241 18.914 78.715L0 255.883"
     fill="#F89C0E"
     id="path3552" />
  <path
     d="M127.946 31.99l-95.96 95.959 95.96 95.956 95.955-95.956-95.955-95.954"
     fill="#F68712"
     id="path3554" />
  <flowRoot
     xml:space="preserve"
     id="flowRoot3564"
     style="font-style:normal;font-variant:normal;font-weight:normal;font-stretch:normal;font-size:1600px;font-family:Tahoma;-inkscape-font-specification:Tahoma;fill:#000000;fill-opacity:1;stroke:none"
     transform="matrix(0.17984038,0,0,0.14916226,-0.23584885,-45.043462)"><flowRegion
       id="flowRegion3566"
       style="font-style:normal;font-variant:normal;font-weight:normal;font-stretch:normal;font-size:1600px;font-family:Tahoma;-inkscape-font-specification:Tahoma"><rect
         id="rect3568"
         width="1959.5443"
         height="2092.6609"
         x="303.02658"
         y="199.53609"
         style="font-size:1600px;-inkscape-font-specification:Tahoma;font-family:Tahoma;font-weight:normal;font-style:normal;font-stretch:normal;font-variant:normal;" /></flowRegion><flowPara
       id="flowPara3570"
       style="font-style:normal;font-variant:normal;font-weight:normal;font-stretch:normal;font-size:1600px;line-height:1.25;font-family:'Latin Modern Mono';-inkscape-font-specification:'Latin Modern Mono';fill:#552200">8</flowPara></flowRoot></svg>
